<svg width="30" height="30" viewBox="0 0 30 30" fill="none" xmlns="http://www.w3.org/2000/svg">
<path d="M16.1925 14.52L19.8888 10.8238L7.95 4.11375C7.15875 3.68625 6.4175 3.62625 5.7675 4.09375L16.1925 14.52ZM20.5188 18.8475L24.3612 16.6863C25.1112 16.2663 25.5225 15.6713 25.5225 15.0112C25.5225 14.3525 25.1112 13.7562 24.3625 13.3362L20.8838 11.3825L16.9675 15.2975L20.5188 18.8475ZM5.125 5.0025C5.045 5.24875 5 5.52375 5 5.825V24.2062C5 24.6825 5.105 25.0925 5.295 25.4187L15.4163 15.2963L5.125 5.0025ZM16.1925 16.0713L6.1275 26.1375C6.32 26.2112 6.5275 26.25 6.74625 26.25C7.13625 26.25 7.5425 26.135 7.95625 25.905L19.525 19.4088L16.1925 16.0713Z" fill="#F8F8F8"/>
</svg>
