<svg width="30" height="30" viewBox="0 0 30 30" fill="none" xmlns="http://www.w3.org/2000/svg">
<path d="M11.3675 26.2575C10.5815 26.2149 9.84185 25.8722 9.30125 25.3C8.65449 24.6778 8.07735 23.9871 7.58 23.24C6.8031 22.1275 6.18899 20.9098 5.75625 19.6238C5.26651 18.2402 5.00887 16.7852 4.99375 15.3175C4.95571 13.8775 5.31233 12.4544 6.025 11.2025C6.54697 10.3001 7.29149 9.5466 8.1875 9.01378C9.07361 8.48323 10.0848 8.19766 11.1175 8.18628C11.896 8.23234 12.6611 8.41028 13.38 8.71253C13.9538 8.96503 14.5563 9.14253 15.175 9.24003C15.8575 9.09705 16.5244 8.88772 17.1663 8.61503C17.9258 8.31845 18.7301 8.15236 19.545 8.12378C19.6538 8.12378 19.7613 8.12378 19.865 8.13628C21.6525 8.18753 23.315 9.06503 24.365 10.5113C23.5455 10.9496 22.8637 11.6065 22.3952 12.4091C21.9267 13.2117 21.6899 14.1285 21.7113 15.0575C21.7031 15.7679 21.8456 16.472 22.1293 17.1234C22.4131 17.7747 22.8317 18.3585 23.3575 18.8363C23.8363 19.2925 24.3938 19.6575 25.0025 19.915C24.8775 20.29 24.7338 20.6525 24.5813 21.0175C24.235 21.8241 23.8078 22.5935 23.3063 23.3138C22.832 24.0354 22.2799 24.7027 21.66 25.3038C21.0945 25.8649 20.3408 26.1959 19.545 26.2325C18.8704 26.2026 18.2078 26.0444 17.5925 25.7663C16.929 25.4772 16.216 25.3189 15.4925 25.3C14.7486 25.3147 14.0145 25.4721 13.33 25.7638C12.7388 26.0305 12.1072 26.1965 11.4613 26.255L11.3675 26.2575ZM15.305 8.12378C15.2113 8.12378 15.1175 8.12378 15.0238 8.11253C15.004 7.96374 14.9936 7.81387 14.9925 7.66378C15.0334 6.4152 15.5213 5.22282 16.3675 4.30378C16.8408 3.7756 17.4144 3.34686 18.055 3.04253C18.652 2.73522 19.3043 2.55035 19.9738 2.49878C19.9925 2.66253 19.9925 2.82253 19.9925 2.97503C19.9749 4.20399 19.5132 5.38506 18.6925 6.30003C18.2952 6.83281 17.786 7.27215 17.2008 7.58721C16.6156 7.90227 15.9685 8.08541 15.305 8.12378Z" fill="#F8F8F8"/>
</svg>
