<svg width="428" height="729" viewBox="0 0 428 729" fill="none" xmlns="http://www.w3.org/2000/svg">
<g clip-path="url(#clip0_2_5)">
<path d="M445.822 394C445.822 412.679 430.679 427.822 412 427.822C393.321 427.822 378.178 412.679 378.178 394C378.178 375.321 393.321 360.178 412 360.178C430.679 360.178 445.822 375.321 445.822 394ZM390.325 394C390.325 405.971 400.029 415.675 412 415.675C423.971 415.675 433.675 405.971 433.675 394C433.675 382.029 423.971 372.325 412 372.325C400.029 372.325 390.325 382.029 390.325 394Z" fill="#3C1D59" fill-opacity="0.1"/>
<path d="M476.96 394C476.96 429.876 447.876 458.96 412 458.96C376.124 458.96 347.04 429.876 347.04 394C347.04 358.124 376.124 329.04 412 329.04C447.876 329.04 476.96 358.124 476.96 394ZM370.37 394C370.37 416.991 389.008 435.63 412 435.63C434.991 435.63 453.63 416.991 453.63 394C453.63 371.009 434.991 352.37 412 352.37C389.008 352.37 370.37 371.009 370.37 394Z" fill="#3C1D59" fill-opacity="0.1"/>
<path d="M526.351 394C526.351 457.154 475.154 508.351 412 508.351C348.846 508.351 297.649 457.154 297.649 394C297.649 330.846 348.846 279.649 412 279.649C475.154 279.649 526.351 330.846 526.351 394ZM338.718 394C338.718 434.473 371.527 467.282 412 467.282C452.473 467.282 485.282 434.473 485.282 394C485.282 353.527 452.473 320.718 412 320.718C371.527 320.718 338.718 353.527 338.718 394Z" fill="#3C1D59" fill-opacity="0.1"/>
<path d="M606.343 394C606.343 501.333 519.333 588.343 412 588.343C304.667 588.343 217.657 501.333 217.657 394C217.657 286.667 304.667 199.657 412 199.657C519.333 199.657 606.343 286.667 606.343 394ZM287.455 394C287.455 462.784 343.216 518.545 412 518.545C480.784 518.545 536.545 462.784 536.545 394C536.545 325.216 480.784 269.455 412 269.455C343.216 269.455 287.455 325.216 287.455 394Z" fill="#3C1D59" fill-opacity="0.1"/>
<path d="M747 394C747 579.015 597.015 729 412 729C226.985 729 77 579.015 77 394C77 208.985 226.985 59 412 59C597.015 59 747 208.985 747 394ZM197.314 394C197.314 512.568 293.432 608.686 412 608.686C530.568 608.686 626.686 512.568 626.686 394C626.686 275.432 530.568 179.314 412 179.314C293.432 179.314 197.314 275.432 197.314 394Z" fill="#3C1D59" fill-opacity="0.1"/>
</g>
<defs>
<clipPath id="clip0_2_5">
<rect width="487" height="749" fill="white"/>
</clipPath>
</defs>
</svg>
